<svg width="259" height="275" viewBox="0 0 259 275" fill="none" xmlns="http://www.w3.org/2000/svg">
<path d="M204.568 180.246C175.155 232.008 117.725 254.404 76.4314 230.89C35.1379 207.377 25.0179 146.517 54.4316 94.7545C83.8454 42.992 141.275 20.5964 182.569 44.1098C223.862 67.6232 233.982 128.483 204.568 180.246Z" stroke="white" stroke-width="2"/>
<path d="M184.298 137.382C184.298 140.066 182.922 142.728 180.207 145.258C177.491 147.789 173.505 150.114 168.497 152.088C158.486 156.033 144.587 158.495 129.185 158.495C113.783 158.495 99.8846 156.033 89.8736 152.088C84.8651 150.114 80.8797 147.789 78.1631 145.258C75.448 142.728 74.0717 140.066 74.0717 137.382C74.0717 134.698 75.448 132.036 78.1631 129.507C80.8797 126.976 84.8651 124.65 89.8736 122.677C99.8846 118.732 113.783 116.27 129.185 116.27C144.587 116.27 158.486 118.732 168.497 122.677C173.505 124.65 177.491 126.976 180.207 129.507C182.922 132.036 184.298 134.698 184.298 137.382Z" stroke="white" stroke-width="2"/>
<ellipse cx="150.513" cy="118.574" rx="12.4414" ry="12.4543" fill="white"/>
<ellipse cx="116.998" cy="41.3065" rx="12.4414" ry="12.4543" fill="white"/>
<ellipse cx="95.1616" cy="153.649" rx="5.83985" ry="5.84589" fill="white"/>
</svg>
